# xmcd
#
# Track frame offsets:
#	150
#	19549
#	38365
#	54620
#	66614
#	79464
#	95680
#	111114
#	123976
#	137096
#	155569
#	174647
#	203145
#	222468
#	237048
#	254198
#	279769
#
# Disc length: 4052 seconds
#
# Revision: 0
# Processed by: cddbd v1.5.2PL0 Copyright (c) Steve Scherf et al.
# Submitted via: EasyCDDAExtractor 2011.0.0.0
#
DISCID=f90fd211
DTITLE=MICHAL TUČNÝ - Gold
DYEAR=1900
DGENRE=Country
TTITLE0=Medicinman
TTITLE1=Báječná ženská
TTITLE2=Koukám, jak celá zem vztává
TTITLE3=Rád se brouzdám rosou
TTITLE4=Snídaně v trávě
TTITLE5=Abych tu žil
TTITLE6=Chtěl bych být medvídkem
TTITLE7=Prodavač
TTITLE8=Je to zvláštní
TTITLE9=Pověste ho vejš
TTITLE10=Starýho psa novým kouskům nenaučíš
TTITLE11=Jak chcete žít bez koní
TTITLE12=Všichni jsou už v Mexiku
TTITLE13=Poslední kovboj
TTITLE14=Tam u nebeskejch bran
TTITLE15=Směs hitů
TTITLE16=Kosmickej vandr (hosté)
EXTD=
EXTT0=
EXTT1=
EXTT2=
EXTT3=
EXTT4=
EXTT5=
EXTT6=
EXTT7=
EXTT8=
EXTT9=
EXTT10=
EXTT11=
EXTT12=
EXTT13=
EXTT14=
EXTT15=
EXTT16=
PLAYORDER=
